<?xml version="1.0" encoding="UTF-8"?><svg id="CP_Logo" xmlns="http://www.w3.org/2000/svg" viewBox="0 0 451 448.49"><defs><style>.cls-1{fill:#4e844a;}.cls-1,.cls-2,.cls-3,.cls-4{stroke-width:0px;}.cls-3{fill:#d85700;}.cls-4{fill:#fff;}</style></defs><path class="cls-2" d="m232.94,434.91L446.66,8.65l4.34-8.65H0l4.37,8.66,211.76,420s.06-.02.09-.04l9.91,19.87,4.43-8.75v-.09s2.38-4.75,2.38-4.75Z"/><polygon class="cls-3" points="224.61 432.23 9.7 5.97 225.81 5.97 224.61 432.23"/><polygon class="cls-1" points="227.6 432.23 441.33 5.97 226.41 5.97 227.6 432.23"/><path class="cls-2" d="m373.33,16.12h-146.32v249.55h27.31c.24,0,.39.12.47.22.08.1.18.27.14.5l-17.13,106.18-3.69,22.9,10.43-20.72,89.55-177.91,2.61-5.19h-38.59L371.19,21.11l2.14-4.99Z"/><path class="cls-4" d="m230.59,19.7h137.31l-73.8,172.2c-.67,1.57.48,3.32,2.19,3.32h34.6l-89.55,177.91,17.13-106.18c.41-2.55-1.56-4.87-4.14-4.87h-23.73V19.7Z"/><path class="cls-4" d="m222.8,16.12H79.28l2.15,5,73.49,170.52h-38.8l2.63,5.2,90.05,177.91,10.43,20.6-3.7-22.8-17.22-106.18c-.04-.23.05-.39.14-.49.09-.1.24-.23.49-.23h27.44V16.12h-3.58Z"/><path class="cls-2" d="m222.8,19.7H84.73l74.21,172.2c.68,1.57-.48,3.32-2.2,3.32h-34.79l90.05,177.91-17.22-106.18c-.41-2.55,1.57-4.87,4.17-4.87h23.86V19.7Z"/><polygon class="cls-2" points="235.96 216.11 235.96 140.89 288.5 140.89 238.35 28.66 276.56 28.66 344.61 179.1 269.39 179.1 269.39 216.11 235.96 216.11"/><path class="cls-2" d="m204.13,123.01c-8.94-9.72-20.83-16-33.77-17.91l33.17-75.49,1.47-3.35h-48.23l-.61,1.46-45.05,107.42-.37.87c-4,7.95-6.11,16.83-6.11,25.76,0,31.6,25.71,57.31,57.31,57.31s57.31-25.71,57.31-57.31c0-14.41-5.37-28.18-15.12-38.78Zm-43.09,55.49c-9.05,0-16.42-7.36-16.42-16.42s7.36-16.42,16.42-16.42,16.42,7.36,16.42,16.42-7.36,16.42-16.42,16.42Z"/><path class="cls-4" d="m166.87,107.1l34.47-78.44h-42.98l-45.05,107.42.13-.07c-4.1,7.69-6.43,16.46-6.43,25.78,0,30.33,24.59,54.92,54.92,54.92s54.92-24.59,54.92-54.92c0-28.67-21.97-52.19-49.99-54.69Zm-5.83,73.8c-10.39,0-18.81-8.42-18.81-18.81s8.42-18.81,18.81-18.81,18.81,8.42,18.81,18.81-8.42,18.81-18.81,18.81Z"/></svg>